<?xml version="1.0" encoding="UTF-8"?>
<!DOCTYPE svg PUBLIC "-//W3C//DTD SVG 1.1//EN" "http://www.w3.org/Graphics/SVG/1.1/DTD/svg11.dtd">
<!-- Creator: CorelDRAW X7 -->
<svg xmlns="http://www.w3.org/2000/svg" xml:space="preserve" width="4.8281mm" height="4.4538mm" version="1.1" style="shape-rendering:geometricPrecision; text-rendering:geometricPrecision; image-rendering:optimizeQuality; fill-rule:evenodd; clip-rule:evenodd"
viewBox="0 0 23 21"
 xmlns:xlink="http://www.w3.org/1999/xlink">
 <defs>
  <style type="text/css">
   <![CDATA[
    .fil0 {fill:#008AC2;fill-rule:nonzero}
   ]]>
  </style>
 </defs>
 <g id="Capa_x0020_1">
  <metadata id="CorelCorpID_0Corel-Layer"/>
  <path class="fil0" d="M7 6l0 1c0,0 0,0 0,0 0,-1 0,-1 0,-1zm0 -3c0,-1 1,-2 3,-2l3 0c1,0 2,1 2,2l0 2 0 0 0 0 -3 0c0,0 -1,0 -1,0 0,-1 0,-1 0,-1 0,0 0,0 0,0 0,0 -1,0 -1,0 0,0 0,0 0,0 0,0 0,0 0,0 0,0 0,0 0,0 0,0 -1,0 -2,0 0,0 0,0 0,0 0,0 0,0 0,0 0,0 0,0 0,0 0,0 0,0 0,0 0,0 0,0 0,0 -1,0 -1,0 -1,0 0,0 0,0 0,0l0 -1zm7 5l0 0c0,2 -1,3 -3,3 -2,0 -3,-1 -3,-3l0 0 0 -2 0 -1c0,0 0,0 0,0 0,0 0,0 0,0 0,0 0,0 0,0 0,0 0,0 1,0 0,0 0,0 0,0 0,0 0,0 0,0 0,0 0,0 0,0 0,0 0,0 0,0 0,0 0,0 0,0 0,0 0,0 0,0 0,0 0,0 0,0 0,0 1,0 1,0 0,0 0,0 0,0 0,0 0,0 0,0 0,0 0,0 0,0 0,0 0,0 0,0 1,1 1,1 2,1l2 0 0 2zm1 -2c0,0 0,0 0,1 0,0 0,0 0,0l0 -1zm-8 2l0 0c0,3 2,4 4,4 2,0 4,-1 4,-4l0 0c1,0 1,-1 1,-1 0,-1 0,-1 0,-1l0 -3c0,-1 -1,-3 -3,-3l-3 0c-2,0 -4,2 -4,3l0 3c0,0 0,0 0,1 0,0 0,1 1,1zm13 9c0,0 0,0 0,0l0 4 0 0 0 -4c0,0 0,0 0,0zm-17 0c0,0 -1,0 -1,0l0 4 1 0 0 -4c0,0 0,0 0,0zm8 -3l-1 1c0,1 0,1 0,1l-1 -3c1,1 1,1 2,1zm1 2l0 0 -1 0 0 0 0 -2 1 2zm2 -3l-1 3c0,0 0,0 0,-1l-1 -1c1,0 1,0 2,-1zm-1 3l-1 0 1 0 0 0zm-2 3l0 -2 0 -1 1 0 0 1 -1 2zm-1 -3l0 0 0 0 0 0zm7 3c0,0 -1,1 -1,1 -1,0 -1,-1 -1,-1 0,-1 0,-1 1,-1 0,0 1,0 1,1zm-16 2l0 -2c0,-3 2,-6 5,-6 0,0 0,0 0,1 -1,0 -2,1 -2,2l0 4c0,0 0,0 0,0 0,0 0,0 1,0l0 0c1,0 1,0 1,0 0,0 0,0 -1,0l0 0 0 -4c0,-1 1,-1 1,-1 1,0 1,0 1,1l1 4 -1 0c0,0 0,0 0,0 0,0 0,0 0,0l1 0c0,0 0,0 0,0 0,0 0,0 0,0l0 -4c0,-1 -1,-2 -1,-2 0,-1 0,-1 0,-1 0,0 0,0 0,0l4 8c0,0 0,0 0,0 1,0 1,0 1,0l3 -8c1,1 1,1 1,2l0 2c-1,0 -2,1 -2,2 0,1 1,1 2,1 1,0 1,0 1,-1 0,-1 0,-2 -1,-2l0 -2c0,-1 0,-2 0,-2 3,0 6,3 6,6l0 2 1 0 0 -2c0,-4 -4,-7 -8,-7 0,0 0,0 0,0 0,0 0,0 0,0 0,0 0,0 0,0 0,0 0,0 0,0 0,0 0,0 0,0 0,0 0,0 0,0 0,0 0,0 0,0 -2,1 -5,1 -7,0 0,0 0,0 0,0 0,0 0,0 0,0 0,0 0,0 0,0 0,0 0,0 0,0 0,0 0,0 0,0 0,0 0,0 0,0 0,0 0,0 0,0 -5,0 -8,3 -8,7l0 2 1 0z"/>
 </g>
</svg>
