<?xml version="1.0" encoding="UTF-8"?>
<!DOCTYPE svg PUBLIC "-//W3C//DTD SVG 1.1//EN" "http://www.w3.org/Graphics/SVG/1.1/DTD/svg11.dtd">
<!-- Creator: CorelDRAW X7 -->
<svg xmlns="http://www.w3.org/2000/svg" xml:space="preserve" width="123.19mm" height="77.9145mm" version="1.1" style="shape-rendering:geometricPrecision; text-rendering:geometricPrecision; image-rendering:optimizeQuality; fill-rule:evenodd; clip-rule:evenodd"
viewBox="0 0 12319 7791"
 xmlns:xlink="http://www.w3.org/1999/xlink">
 <defs>
  <style type="text/css">
   <![CDATA[
    .fil1 {fill:#00AFEF}
    .fil3 {fill:#00A859}
    .fil4 {fill:#00A859}
    .fil0 {fill:#00AFEF;fill-rule:nonzero}
    .fil2 {fill:#00AFEF;fill-rule:nonzero}
   ]]>
  </style>
 </defs>
 <g id="Capa_x0020_1">
  <metadata id="CorelCorpID_0Corel-Layer"/>
  <g id="_689071784">
   <path class="fil0" d="M5600 2199c-22,0 -41,-8 -57,-24 -16,-16 -24,-34 -24,-56 0,-22 8,-41 24,-57 16,-16 35,-24 57,-24l802 0c22,0 41,8 57,24 16,16 24,35 24,57 0,22 -8,40 -24,56 -16,16 -35,24 -57,24l-802 0zm802 321c22,0 41,8 57,24 16,15 24,34 24,56 0,22 -8,41 -24,57 -16,16 -35,24 -57,24l-802 0c-22,0 -41,-8 -57,-24 -16,-16 -24,-35 -24,-57 0,-22 8,-41 24,-56 16,-16 35,-24 57,-24l802 0zm-802 642c-22,0 -41,-8 -57,-23 -16,-16 -24,-35 -24,-57 0,-22 8,-41 24,-57 16,-15 35,-23 57,-23l802 0c22,0 41,8 57,23 16,16 24,35 24,57 0,22 -8,41 -24,57 -16,15 -35,23 -57,23l-802 0zm1204 -80c0,22 -8,41 -24,57 -16,15 -35,23 -57,23 -22,0 -40,-8 -56,-23 -16,-16 -24,-35 -24,-57l0 -963c0,-22 8,-41 24,-57 16,-16 34,-24 56,-24 22,0 41,8 57,24 6,6 11,13 16,21l650 776 0 -740c0,-22 8,-41 23,-57 16,-16 35,-24 57,-24 22,0 41,8 57,24 15,16 23,35 23,57l0 963c0,22 -8,41 -23,57 -16,15 -35,23 -57,23 -22,0 -41,-8 -56,-24 -7,-6 -12,-13 -16,-20l-650 -776 0 740zm1525 -1044c155,0 288,55 397,165 110,110 165,242 165,397 0,156 -55,288 -165,398 -109,109 -242,164 -397,164 -155,0 -288,-55 -397,-164 -110,-110 -165,-242 -165,-398 0,-155 55,-287 165,-397 109,-110 242,-165 397,-165zm0 161c-111,0 -206,39 -284,118 -78,78 -117,173 -117,283 0,111 39,206 117,284 78,78 173,118 284,118 111,0 205,-40 283,-118 79,-78 118,-173 118,-284 0,-110 -39,-205 -118,-283 -78,-79 -172,-118 -283,-118zm763 916c-4,8 -9,16 -16,23 -16,16 -35,24 -57,24 -22,0 -41,-8 -57,-23 -15,-16 -23,-35 -23,-57 0,-14 3,-26 9,-37l394 -946 1 0c3,-14 10,-26 21,-37 16,-16 35,-24 56,-24 22,0 41,8 57,24 12,12 19,26 22,41l3 -1 321 770 321 -773 1 0c3,-14 11,-26 22,-37 15,-16 34,-24 56,-24 22,0 41,8 57,24 12,12 19,26 22,41l3 -1 397 954 -1 0c2,8 4,17 4,26 0,22 -8,41 -24,57 -16,15 -35,23 -57,23 -22,0 -40,-8 -56,-24 -11,-10 -17,-22 -21,-34l-323 -780 -328 791 -1 0c-4,8 -9,16 -16,23 -16,16 -35,24 -57,24 -22,0 -41,-8 -56,-24 -11,-10 -18,-22 -21,-34l-324 -780 -328 791 -1 0zm1930 0c-4,8 -9,16 -16,23 -16,16 -35,24 -57,24 -22,0 -41,-8 -57,-23 -16,-16 -24,-35 -24,-57 0,-14 3,-26 9,-37l394 -946 1 0c3,-14 11,-26 22,-37 15,-16 34,-24 56,-24 22,0 41,8 57,24 12,12 19,26 22,41l3 -1 396 954 0 0c2,8 4,17 4,26 0,22 -8,41 -24,57 -16,15 -35,23 -57,23 -21,0 -40,-8 -56,-24 -10,-10 -18,-22 -21,-34l-323 -780 -328 791 -1 0z"/>
   <path class="fil0" d="M6029 0c150,0 279,54 385,163 109,106 163,235 163,385 0,150 -54,279 -163,387 -106,109 -235,161 -385,161l-2192 0c-758,0 -1403,268 -1938,805 -535,535 -803,1180 -803,1936 0,757 268,1403 803,1938 535,535 1180,802 1938,802l1644 0 0 -2192 284 0c150,0 -280,-54 -387,-161 -108,-108 -161,-238 -161,-387 0,-150 54,-279 161,-386 108,-108 238,-162 387,-162l264 0c150,0 278,55 385,162 108,108 163,236 163,386l0 3288c0,150 -54,279 -163,387 -106,107 -235,161 -385,161l-2192 0c-1061,0 -1965,-374 -2713,-1124 -750,-748 -1124,-1652 -1124,-2712 0,-1059 374,-1965 1124,-2713 748,-748 1652,-1124 2713,-1124l2192 0z"/>
   <path class="fil1" d="M10508 7411c-2,21 -1,43 3,64 4,20 9,39 17,57 8,18 17,36 28,52 13,17 28,31 46,42 18,11 36,20 56,27 19,8 40,12 60,15l697 0c21,-2 43,-6 64,-11 21,-5 41,-11 62,-18 19,-7 37,-18 52,-33 0,0 1,0 1,0 19,-16 36,-34 51,-53 13,-18 23,-37 30,-57 8,-23 15,-45 20,-68 0,-29 0,-57 -2,-86 -1,-26 -7,-52 -16,-77 -11,-25 -25,-48 -41,-69 -20,-21 -41,-40 -65,-56 -22,-15 -46,-27 -71,-35 -26,-8 -53,-13 -80,-15l-651 0c-2,0 -4,-1 -6,-1 -8,-3 -16,-5 -23,-8 -8,-3 -16,-6 -24,-11 -6,-3 -11,-7 -17,-11 -4,-2 -6,-5 -8,-9l-16 -35c-1,-4 -2,-7 -2,-11 0,-6 1,-13 2,-19 1,-6 2,-12 3,-18 1,-6 3,-13 6,-19 1,-3 3,-5 5,-7 9,-7 17,-13 27,-19 0,0 0,0 0,0 11,-6 22,-11 33,-13 10,-3 20,-5 30,-7 1,0 3,0 5,0l680 0c2,0 3,0 4,0 19,3 46,7 50,30 1,5 3,12 5,16 4,15 6,30 6,45 0,12 7,23 13,31 11,14 30,23 46,29 10,0 20,0 30,0 9,0 18,-2 26,-4 7,-3 15,-7 20,-12 1,-1 1,-1 2,-2 15,-12 29,-29 31,-49 2,-21 1,-42 -4,-63 -4,-21 -10,-41 -19,-60 -8,-19 -20,-37 -34,-52 -14,-13 -29,-26 -45,-36 -16,-10 -33,-19 -51,-26 -17,-6 -35,-12 -53,-16l-738 0c-21,7 -41,13 -61,17 -18,4 -34,11 -50,19 -18,10 -35,21 -53,33 -15,13 -29,28 -41,45 -12,15 -21,32 -27,49 -7,19 -12,39 -13,59 -2,27 -2,55 0,82 2,25 9,49 21,72 12,23 27,45 44,66 17,17 36,31 57,43 22,12 45,21 68,28 23,7 47,11 71,13l654 0c2,0 5,1 7,2 6,2 12,3 18,5 9,2 17,5 25,10 5,4 11,7 16,11 1,1 2,2 3,3 6,7 12,13 17,20 9,9 12,22 13,35 0,0 0,0 0,0 1,3 1,10 3,13 3,6 3,13 0,20 -1,4 -1,12 -1,16 0,11 0,23 -3,33 -3,10 -8,18 -14,26 0,1 -1,1 -2,2 -7,7 -14,14 -23,19 -8,6 -17,11 -27,15 -8,4 -18,8 -27,9 -1,0 -2,1 -4,1l-696 0c-5,0 -9,-2 -13,-4l-16 -9c-17,-10 -21,-35 -23,-54 -3,-18 -7,-41 -16,-58 -7,-12 -37,-23 -52,-27 -9,0 -19,0 -28,0 -10,0 -27,7 -36,10 -16,7 -30,37 -36,54zm-1085 257l651 0c19,-3 39,-6 58,-11 19,-4 37,-10 55,-18 16,-6 30,-16 43,-28 1,0 2,-1 2,-1 21,-16 40,-35 55,-57 13,-20 24,-43 31,-66 7,-25 14,-50 20,-75l0 -613c-7,-35 -33,-54 -66,-66 -20,1 -52,3 -68,13 -4,3 -17,13 -19,18 -3,10 -8,19 -14,28l0 590c0,3 -1,6 -2,10 -3,5 -4,11 -5,16 -1,12 -4,22 -11,32 -3,6 -7,13 -11,19 -1,2 -2,4 -4,5 -4,5 -9,9 -13,13 0,1 0,1 -1,1 -8,8 -17,13 -28,15 -6,2 -12,3 -19,5 -2,0 -3,1 -6,1l-652 0c-3,0 -6,-1 -9,-2l-50 -21c-3,-1 -5,-3 -8,-5 -6,-6 -11,-12 -17,-19 -9,-9 -13,-21 -15,-34 -1,-7 -2,-13 -4,-20 -1,-2 -1,-4 -1,-7l0 -593c-9,-35 -29,-56 -64,-65 -11,0 -21,0 -31,0 -10,0 -25,8 -34,12 -17,10 -30,35 -38,53l0 630c6,19 11,39 17,59 5,18 13,35 22,52 10,17 23,32 36,46 20,16 40,30 62,42 22,11 44,20 67,27 23,7 47,11 71,14zm-398 0c40,-6 65,-29 78,-67 -1,-10 -1,-20 -3,-29 -2,-9 -5,-17 -8,-24 -5,-9 -9,-17 -13,-26 -7,-6 -32,-18 -45,-23l-929 0c-14,0 -25,-11 -25,-25l0 -676c-4,-37 -33,-54 -65,-65 -10,0 -19,0 -28,0 -7,0 -15,2 -22,5 -9,4 -18,8 -25,12 -8,6 -21,35 -27,49l0 811c7,48 20,58 70,58l1042 0z"/>
   <path class="fil2" d="M6964 7385l0 -1791c57,-190 171,-291 343,-303l3793 0c138,-19 254,-84 349,-194 46,-65 73,-140 80,-223l0 -218c-7,-103 -55,-197 -142,-280 -92,-69 -191,-113 -298,-131l-3794 0c-163,-46 -274,-146 -331,-298l0 -190c65,-178 183,-278 355,-296l3747 0c370,18 691,169 961,452 176,220 273,470 292,749l0 206c-19,362 -172,670 -458,921 -236,161 -496,257 -778,291l-3347 0 0 1299c-51,380 -690,414 -772,6z"/>
   <path class="fil3" d="M2184 3365l2171 -4c124,-1 249,42 275,136 106,375 368,607 700,771 103,50 166,84 289,98 53,4 81,70 77,130 196,-68 283,-192 262,-370 -10,-55 -99,-151 -152,-164 -34,-6 -71,-12 -108,-18 -34,-6 -69,-12 -102,-18 -168,-32 -301,-77 -165,-178 194,-116 395,-105 549,-20l65 42c257,197 320,623 -172,930 -127,71 -185,165 -167,286l-4 284c-4,279 26,365 257,518l618 367c326,207 115,502 0,627l0 -289 -804 -560c-125,-87 -267,-175 -380,-276 -310,-274 -416,-607 -29,-979 44,-48 58,-83 -4,-107 -420,-138 -795,-330 -936,-806 -22,-75 -13,-105 -111,-132 -49,-13 -95,-11 -146,-10l-1534 1c-229,-10 -387,-88 -449,-259zm3293 1609c-116,77 -142,248 4,383l-4 -383zm-2753 -1239c-65,124 203,270 304,304l1391 12c-67,-99 -125,-201 -142,-320l-1553 4zm656 421c-49,-3 -66,11 -38,43 79,83 176,154 286,216l1159 2c-103,-74 -195,-157 -269,-254l-1138 -7zm823 413c-42,-3 -82,6 -38,60 120,110 254,162 429,156l338 0c95,-2 171,19 174,-91 2,-60 -34,-126 -117,-123l-786 -2zm488 367c-42,-3 -83,5 -38,60 110,100 232,155 388,159 -10,-64 -2,-157 48,-220l-398 1zm982 -1198c23,0 42,6 42,15 0,8 -19,15 -42,15 -24,0 -43,-7 -43,-15 0,-9 19,-15 43,-15z"/>
   <path class="fil4" d="M5492 6407c-196,-221 -385,37 -261,170l831 981c58,78 78,97 35,107 -46,11 -99,8 -146,8l-125 0c160,266 672,22 549,-124l-883 -1142z"/>
  </g>
 </g>
</svg>
