<?xml version="1.0" encoding="UTF-8"?>
<!DOCTYPE svg PUBLIC "-//W3C//DTD SVG 1.1//EN" "http://www.w3.org/Graphics/SVG/1.1/DTD/svg11.dtd">
<!-- Creator: CorelDRAW X7 -->
<svg xmlns="http://www.w3.org/2000/svg" xml:space="preserve" width="41.5712mm" height="25.8948mm" version="1.1" style="shape-rendering:geometricPrecision; text-rendering:geometricPrecision; image-rendering:optimizeQuality; fill-rule:evenodd; clip-rule:evenodd"
viewBox="0 0 2677 1667"
 xmlns:xlink="http://www.w3.org/1999/xlink">
 <defs>
  <style type="text/css">
   <![CDATA[
    .fil2 {fill:#FEFEFE}
    .fil3 {fill:#00A859}
    .fil0 {fill:#00AFEF;fill-rule:nonzero}
    .fil1 {fill:#00AFEF;fill-rule:nonzero}
   ]]>
  </style>
 </defs>
 <g id="Capa_x0020_1">
  <metadata id="CorelCorpID_0Corel-Layer"/>
  <g id="_564540664">
   <path class="fil0" d="M487 558c-3,0 -5,-1 -8,-3 -2,-2 -3,-5 -3,-8 0,-3 1,-6 3,-8 3,-2 5,-3 8,-3l113 0c3,0 6,1 8,3 2,2 3,5 3,8 0,3 -1,6 -3,8 -2,2 -5,3 -8,3l-113 0zm113 45c3,0 6,1 8,4 2,2 3,5 3,8 0,3 -1,5 -3,8 -2,2 -5,3 -8,3l-113 0c-3,0 -5,-1 -8,-3 -2,-3 -3,-5 -3,-8 0,-3 1,-6 3,-8 3,-3 5,-4 8,-4l113 0zm-113 91c-3,0 -5,-2 -8,-4 -2,-2 -3,-5 -3,-8 0,-3 1,-5 3,-8 3,-2 5,-3 8,-3l113 0c3,0 6,1 8,3 2,3 3,5 3,8 0,3 -1,6 -3,8 -2,2 -5,4 -8,4l-113 0zm169 -12c0,3 -1,6 -3,8 -2,2 -5,4 -8,4 -3,0 -6,-2 -8,-4 -2,-2 -3,-5 -3,-8l0 -135c0,-3 1,-6 3,-8 2,-2 5,-3 8,-3 3,0 6,1 8,3 1,1 2,2 2,3l92 109 0 -104c0,-3 1,-6 3,-8 2,-2 5,-3 8,-3 3,0 6,1 8,3 2,2 3,5 3,8l0 135c0,3 -1,6 -3,8 -2,2 -5,4 -8,4 -3,0 -6,-2 -8,-4 -1,-1 -2,-2 -2,-3l-92 -109 0 104zm215 -146c22,0 40,7 56,23 15,15 23,34 23,56 0,21 -8,40 -23,55 -16,16 -34,24 -56,24 -22,0 -41,-8 -56,-24 -16,-15 -23,-34 -23,-55 0,-22 7,-41 23,-56 15,-16 34,-23 56,-23zm0 22c-16,0 -29,6 -40,17 -11,11 -17,24 -17,40 0,15 6,28 17,39 11,11 24,17 40,17 15,0 29,-6 40,-17 11,-11 16,-24 16,-39 0,-16 -5,-29 -16,-40 -11,-11 -25,-17 -40,-17zm107 129c-1,1 -1,2 -2,3 -3,2 -5,4 -8,4 -3,0 -6,-2 -8,-4 -2,-2 -4,-5 -4,-8 0,-2 1,-3 2,-5l55 -133 0 0c1,-2 2,-4 3,-5 2,-2 5,-3 8,-3 3,0 6,1 8,3 2,2 3,4 3,6l1 0 45 108 45 -109 0 0c0,-2 1,-4 3,-5 2,-2 5,-3 8,-3 3,0 6,1 8,3 1,2 3,4 3,6l0 0 56 134 0 0c0,1 0,2 0,3 0,3 -1,6 -3,8 -2,2 -5,4 -8,4 -3,0 -6,-2 -8,-4 -1,-1 -2,-3 -3,-5l-45 -109 -46 111 0 0c-1,1 -2,2 -3,3 -2,2 -4,4 -8,4 -3,0 -5,-2 -7,-4 -2,-1 -3,-3 -3,-5l-46 -109 -46 111 0 0zm271 0c0,1 -1,2 -2,3 -3,2 -5,4 -8,4 -3,0 -6,-2 -8,-4 -2,-2 -4,-5 -4,-8 0,-2 1,-3 2,-5l55 -133 0 0c1,-2 2,-4 3,-5 2,-2 5,-3 8,-3 3,0 6,1 8,3 2,2 3,4 3,6l1 0 55 134 0 0c1,1 1,2 1,3 0,3 -1,6 -4,8 -2,2 -4,4 -7,4 -4,0 -6,-2 -8,-4 -2,-1 -3,-3 -3,-5l-46 -109 -46 111 0 0z"/>
   <path class="fil0" d="M1298 0c33,0 60,12 83,35 24,23 35,51 35,83 0,32 -11,60 -35,83 -23,24 -50,35 -83,35l-472 0c-163,0 -302,58 -417,173 -115,116 -173,255 -173,417 0,163 58,302 173,418 115,115 254,172 417,172l354 0 0 -472 -654 0c-33,0 -61,-11 -84,-34 -23,-23 -34,-51 -34,-84 0,-32 11,-60 34,-83 24,-23 51,-35 84,-35l772 0c33,0 60,12 83,35 24,23 35,51 35,83l0 709c0,32 -11,60 -35,83 -23,23 -50,35 -83,35l-472 0c-228,0 -423,-81 -584,-243 -161,-161 -242,-355 -242,-584 0,-228 81,-423 242,-584 161,-161 356,-242 584,-242l472 0z"/>
   <path class="fil1" d="M2374 1642c-6,-1 -11,-2 -16,-4 -5,-2 -10,-5 -14,-7 -5,-3 -9,-7 -13,-12 -2,-4 -5,-8 -7,-13 -2,-5 -3,-9 -4,-15 -1,-5 -1,-11 -1,-17 4,-9 8,-15 12,-17 5,-2 8,-3 11,-3 2,0 5,0 7,0 9,3 15,6 17,10 2,4 3,9 4,16 1,4 2,7 3,8l4 2 164 0c1,0 2,-1 4,-2 2,-1 4,-1 6,-3 2,-1 3,-2 5,-4 1,-1 1,-2 2,-4 0,-1 0,-3 0,-6 0,-2 0,-5 1,-6 -1,-1 -1,-2 -1,-5 0,-2 -1,-4 -2,-5 -1,-1 -2,-2 -4,-4 -1,-1 -2,-2 -3,-3 -1,0 -3,-1 -4,-1 -2,-1 -3,-1 -5,-2l-154 0c-6,0 -12,-1 -18,-3 -6,-2 -12,-4 -17,-7 -6,-3 -11,-7 -15,-12 -4,-5 -8,-10 -11,-16 -4,-6 -5,-13 -6,-19 0,-7 0,-14 0,-21 1,-5 2,-10 3,-15 2,-5 5,-9 8,-13 3,-4 6,-8 10,-12 5,-3 9,-5 14,-8 4,-2 8,-4 13,-5 4,-1 9,-2 14,-4l176 0c4,1 9,2 14,4 4,2 9,4 13,7 4,2 8,5 11,9 4,4 8,9 10,14 2,5 3,10 5,15 1,6 1,11 0,17 0,5 -3,10 -9,15 -2,2 -4,3 -7,4 -2,1 -5,2 -8,2 -2,0 -5,0 -8,0 -6,-2 -11,-5 -14,-9 -3,-4 -5,-8 -5,-11 0,-4 0,-7 -1,-9 -1,-2 -1,-4 -1,-5 0,0 -3,-1 -7,-2l-160 0c-3,1 -5,1 -7,2 -2,0 -4,1 -6,2 -2,1 -4,2 -6,4 0,0 0,1 0,3 -1,1 -1,3 -1,4 0,1 -1,3 -1,4l4 8c1,1 2,1 4,2 1,1 3,1 4,2 2,1 4,1 5,2l154 0c7,0 14,2 20,4 7,2 13,5 18,9 6,3 11,8 17,14 4,6 8,12 10,18 3,6 4,13 5,20 0,7 0,14 0,21 -1,6 -3,12 -5,17 -2,5 -5,10 -8,15 -4,5 -8,9 -13,13 -4,4 -9,7 -14,9 -5,2 -10,4 -15,5 -5,1 -11,2 -16,3l-165 0z"/>
   <path class="fil1" d="M2069 1642c-6,-1 -12,-2 -18,-4 -6,-2 -11,-4 -17,-7 -5,-3 -10,-6 -15,-10 -4,-4 -7,-8 -10,-13 -3,-4 -5,-9 -6,-13 -1,-5 -2,-10 -4,-15l0 -150c4,-9 7,-14 12,-17 4,-2 8,-3 11,-3 2,0 5,0 8,0 11,2 17,9 20,20l0 141c0,1 1,3 1,5 0,2 1,4 2,5 1,1 2,3 4,4l12 5 153 0c2,0 3,-1 5,-1 1,0 2,-1 4,-2 1,-1 2,-2 3,-3 1,-2 2,-4 3,-5 0,-1 1,-3 1,-5 0,-2 1,-4 2,-6l0 -141c1,-2 3,-3 3,-6 1,-2 3,-4 7,-7 4,-3 11,-4 20,-4 12,4 19,11 20,21l0 145c-1,6 -3,13 -4,19 -2,6 -5,11 -8,17 -4,5 -9,10 -15,15 -3,3 -7,5 -12,7 -4,2 -9,4 -13,5 -5,1 -10,2 -15,3l-154 0z"/>
   <path class="fil1" d="M1731 1642c-16,0 -21,-6 -23,-20l0 -192c4,-9 7,-14 9,-15 2,-1 5,-3 7,-4 3,-1 5,-1 7,-1 3,0 5,0 8,0 12,4 19,11 20,21l0 159 220 0c9,4 14,7 15,9 0,1 1,3 3,6 1,2 2,4 2,7 1,2 1,5 1,9 -4,12 -12,19 -24,21l-245 0z"/>
   <path class="fil1" d="M1475 1588l0 -402c12,-43 38,-66 77,-68l851 0c31,-5 57,-19 78,-44 11,-15 17,-31 18,-50l0 -49c-1,-23 -12,-44 -32,-63 -20,-15 -42,-25 -66,-29l-852 0c-37,-11 -62,-33 -74,-67l0 -43c14,-40 41,-62 79,-66l842 0c83,4 155,38 215,101 40,50 62,106 66,168l0 47c-4,81 -39,150 -103,207 -53,36 -111,57 -175,65l-751 0 0 291c-12,86 -155,93 -173,2z"/>
   <path class="fil2" d="M975 1095c-34,0 -62,-11 -86,-36 -1,0 -1,-1 -2,-2 -10,-14 -8,-28 3,-35l-41 0c-3,0 -6,0 -9,-2 -20,-13 -39,-28 -54,-46 0,0 0,0 0,0 -6,-7 -9,-16 -4,-25 0,0 0,0 0,0l-38 0c-2,0 -4,0 -6,-1 -12,-5 -26,-13 -37,-21 -17,-14 -36,-36 -27,-59 0,0 -1,0 -1,0 -43,-2 -80,-19 -94,-63 -2,-5 -1,-10 2,-15 4,-4 9,-7 14,-7l339 -1c27,0 58,11 65,40 9,35 25,64 47,88 -6,-16 -9,-34 -9,-51 0,-31 10,-62 30,-86 19,-23 46,-37 77,-37 30,0 57,14 77,37 20,24 30,55 30,86 0,4 -1,9 -1,14 24,23 36,57 33,90 -3,48 -34,86 -72,112 0,0 0,0 0,1 -15,9 -24,20 -22,39 0,1 0,1 0,2l-1 109c33,35 65,81 57,131 -4,23 -16,44 -28,63 -14,19 -29,38 -42,58l1 115c8,21 2,51 -13,67 -11,13 -31,8 -33,-8 -1,-1 -1,-2 -1,-3l0 -43c-46,-49 -49,-98 -13,-155l0 -188c-29,-26 -56,-58 -63,-96 -31,-1 -56,-14 -78,-36 -1,-1 -1,-1 -2,-2 -10,-14 -8,-27 2,-34zm108 -31c5,-5 9,-11 14,-16 -6,-2 -11,-4 -16,-6 2,6 3,12 3,18 0,2 0,3 -1,4zm-49 -45c-3,-2 -6,-4 -8,-5 -2,2 -3,3 -5,5l13 0zm166 -55c-11,7 -23,13 -36,16 8,2 14,8 18,16 11,-8 17,-18 18,-32zm-33 -34c-2,-1 -3,-1 -4,-1 -21,-4 -59,-10 -65,-34 -4,-13 5,-25 15,-33 1,-1 1,-1 1,-1 28,-18 59,-25 89,-16 -2,-15 -8,-30 -18,-42 -10,-12 -25,-21 -41,-21 -17,0 -31,9 -42,21 -13,16 -19,36 -19,56 0,20 6,40 19,55 11,13 25,21 42,21 8,0 16,-2 23,-5z"/>
   <path class="fil3" d="M595 800l339 -1c22,0 44,9 49,27 19,73 65,118 123,151 18,9 29,16 51,19 9,1 14,13 14,25 34,-13 49,-37 46,-72 -2,-7 -4,-14 -7,-18 -1,1 -2,1 -2,2 -17,20 -39,32 -64,32 -25,0 -48,-12 -64,-32 -16,-19 -26,-45 -26,-74 0,-29 10,-56 26,-75 16,-19 39,-31 64,-31 25,0 47,12 64,31 16,19 26,46 26,75 0,7 -1,14 -2,20 45,39 56,122 -30,182 -23,14 -33,32 -30,56l-1 115c105,111 48,153 -13,240l1 125c7,14 3,39 -9,52 -2,2 -3,2 -4,0l0 -50c-48,-48 -48,-91 -13,-142l0 -202c-67,-56 -95,-119 -21,-198 8,-10 10,-16 -1,-21 -74,-27 -140,-65 -164,-158 -4,-14 -3,-20 -20,-26 -9,-2 -17,-2 -26,-2l-227 1c-40,-2 -68,-18 -79,-51zm606 122c-3,-3 -7,-4 -11,-5 -39,-8 -100,-14 -66,-42 34,-23 69,-21 97,-4 0,-4 0,-8 0,-12 0,-26 -9,-50 -23,-67 -14,-16 -33,-27 -54,-27 -21,0 -41,11 -55,27 -14,17 -23,41 -23,67 0,26 9,49 23,66 14,17 34,27 55,27 21,0 40,-10 54,-27 1,-1 2,-2 3,-3zm-29 388c20,15 24,48 -1,75l1 -75zm-40 -195c-20,15 -25,48 1,75l-1 -75zm-442 -243c-11,25 36,53 54,60l202 2c-12,-19 -22,-39 -25,-62l-231 0zm116 83c-9,-1 -12,2 -7,8 14,16 31,30 50,42l162 1c-19,-15 -35,-31 -48,-50l-157 -1zm102 80c-8,0 -15,2 -7,12 21,22 45,32 76,31l59 0c17,-1 30,3 31,-18 0,-12 -6,-25 -21,-24l-138 -1zm86 72c-8,0 -15,1 -7,12 19,20 41,30 68,31 -2,-13 0,-31 9,-43l-70 0z"/>
  </g>
 </g>
</svg>
